#!OML:ASF E:/inclinewalkrobotboard/Project1/Captureday1/Session1/subject1.ASF
:FULLY-SPECIFIED
:DEGREES
276
root 0 0 0 10.263761375102538 25.247395047646688 -11.45129139467869
lowerback 10.070833189535879 2.7303967660960624 0.11050664156142864
upperback 1.295378671233764 3.4379903523111817 -1.8239497580155652
thorax -4.26157183432817 1.7807647168904084 -2.2416982515749786
lowerneck -9.638834568840242 -5.39913015810871 -7.811536019424258
upperneck 3.203321603360889 -6.395594701684319 5.575984775772649
head 3.6289401067971205 -2.9938864257512794 2.725167116252979
rclavicle -1.0823703500844874E-14 2.0740207294146806E-16
rhumerus 5.5973204614061975 -13.766079020323312 -66.10588441545511
rradius 20.473946437455538
rwrist 56.37856209028837
rhand -7.802500796564308 21.80323823065597
rfingers 7.125019999999915
rthumb 18.10289508883895 -7.887455814202674
lclavicle -7.0063313670970685E-15 6.791026887509387E-15
lhumerus -21.839312611641876 6.609886603964348 75.19752041638205
lradius 36.78225804613716
lwrist -36.98050244147086
lhand -10.332328331262646 14.576731515333865
lfingers 7.053532455347993
lthumb 15.382902642672244 72.54750263868686
rfemur -7.6623653373311615 3.145701567365842 26.755485202191437
rtibia 56.95748720235154
rfoot 8.345074624561203 -1.4343968394211775
rtoes 15.938579875135078
lfemur -10.193803766053442 -2.019838793414939 -27.241152700677237
ltibia 26.746661489874676
lfoot -14.749306382406898 2.2217504883217343
ltoes 12.33410222857319
277
root 0 0 0 10.056436612618162 25.173925882209918 -11.380152096143094
lowerback 9.824872961001292 2.6784625720833977 -0.070371296094073
upperback 1.2230837183609442 3.3577176823641506 -1.8359421896899129
thorax -4.212328967421515 1.7409882842280577 -2.1390524321090227
lowerneck -9.735036105691444 -5.50174082179336 -7.85387289657344
upperneck 3.4515409142803497 -6.579041339568636 5.648525708297516
head 3.725496054639449 -3.072836071586786 2.736666626566345
rclavicle -1.0805198391233162E-14 2.7658097487099464E-16
rhumerus 5.4380079659207725 -13.872323197613996 -66.30593852741154
rradius 20.574795420064547
rwrist 56.43048954558007
rhand -7.862579068496579 21.811046896166356
rfingers 7.125019999999915
rthumb 18.04514280547097 -7.877124519157356
lclavicle -7.448283762644551E-15 7.116775036390141E-15
lhumerus -22.425530822670616 6.356326019276118 75.59333934931472
lradius 37.21384544056499
lwrist -36.81040366215478
lhand -10.166284244626512 14.566874071154228
lfingers 7.052474119373487
lthumb 15.539350102126626 72.46171486820637
rfemur -9.100154748470862 2.113041566683325 24.658418352001895
rtibia 66.11700359243713
rfoot 10.980469217176367 -1.3951569119792406
rtoes 16.22961475400296
lfemur -8.641958857618157 -2.09562436532835 -27.81899319900517
ltibia 26.08286588311118
lfoot -16.07513173178578 2.8146636431993413
ltoes 12.01862653645933
278
root 0 0 0 9.747364191318923 25.011801785268485 -11.270523045135432
lowerback 9.518850207898733 2.609921099348325 -0.27474763181424144
upperback 1.1364870485629135 3.2557859931995363 -1.8480507984676953
thorax -4.147339995061699 1.6902126332019423 -2.0197816342349837
lowerneck -9.85013389464718 -5.633295298530249 -7.898080266777828
upperneck 3.755308748584918 -6.8103086430456985 5.751382090321596
head 3.845208354271897 -3.172729631424044 2.7542254173818703
rclavicle -1.0767991397814827E-14 3.3260022999231036E-16
rhumerus 5.380790127846719 -13.90174794043554 -66.37233709750949
rradius 20.549432048409706
rwrist 56.50781362025313
rhand -7.901986141583816 21.80057118871822
rfingers 7.125019999999915
rthumb 18.007504704944076 -7.888892487974388
lclavicle -7.716074216500891E-15 7.355955411272858E-15
lhumerus -22.878056292652097 6.117635588219784 75.927101062128
lradius 37.53446497695456
lwrist -36.722953183064206
lhand -10.013075201427243 14.554405616962498
lfingers 7.0512952438084175
lthumb 15.682525540559839 72.22208923021475
rfemur -10.72418793665034 1.3371563374373228 23.76251644428287
rtibia 70.14885036907334
rfoot 11.687158020683668 -1.5193620924140276
rtoes 15.747062987836527
lfemur -7.683480412120066 -2.137894139790729 -28.13345798032384
ltibia 25.5922327292327
lfoot -16.822436346600718 3.1219751740303345
ltoes 11.722809730305126
279
root 0 0 0 9.40965518943324 24.79884865216734 -11.153426847835277
lowerback 9.202774385361382 2.5328319365416965 -0.47746220579943044
upperback 1.0491368303190494 3.143606154395446 -1.8544507764063574
thorax -4.078502906829808 1.6342590414880267 -1.8941708604653564
lowerneck -9.967249653700662 -5.7838471140952805 -7.9457816630824825
upperneck 4.060541357276433 -7.069118496647974 5.874857042093735
head 3.9678083640458546 -3.285423374701751 2.777186847720091
rclavicle -1.069035165311893E-14 3.4042421335392945E-16
rhumerus 5.281034007796266 -13.818272611037392 -66.43698136301074
rradius 20.413921195680985
rwrist 56.6318541448706
rhand -7.9034262055302165 21.794124702044357
rfingers 7.125019999999915
rthumb 18.006855676537594 -7.897755185530862
lclavicle -7.7273917808047E-15 7.402574495662711E-15
lhumerus -23.199278985944417 5.892678278012664 76.1919328080107
lradius 37.67326655836099
lwrist -36.71267506884604
lhand -9.88926543605779 14.562136168856252
lfingers 7.050650045269225
lthumb 15.799130849295217 71.86736263655588
rfemur -12.114122651240438 0.8185553747988692 23.38246008728587
rtibia 71.72332143888276
rfoot 11.551627162193721 -1.725734110973523
rtoes 15.085729832308916
lfemur -6.809825949018487 -2.1655409751945442 -28.35778252854443
ltibia 25.22327809402188
lfoot -17.2356088985416 3.212445446747945
ltoes 11.372163287233143
